<?xml version="1.0" encoding="UTF-8" standalone="no"?>
<!DOCTYPE svg PUBLIC "-//W3C//DTD SVG 1.1//EN" "http://www.w3.org/Graphics/SVG/1.1/DTD/svg11.dtd">
<svg width="100%" height="100%" viewBox="0 0 100 57" version="1.1" xmlns="http://www.w3.org/2000/svg" xmlns:xlink="http://www.w3.org/1999/xlink" xml:space="preserve" xmlns:serif="http://www.serif.com/" style="fill-rule:evenodd;clip-rule:evenodd;stroke-linejoin:round;stroke-miterlimit:2;">
    <g transform="matrix(1,0,0,1,-100,-1040.93)">
        <g transform="matrix(1,0,0,1,346.972,110.612)">
            <g transform="matrix(0.0800901,0,0,0.0800901,-323.162,855.813)">
                <g id="g36" transform="matrix(1.33333,0,0,1.33333,523.965,240.479)">
                    <g id="g38">
                        <g id="g44" transform="matrix(5.01287,0,0,5.01283,-1008.31,295.114)">
                            <path id="path46" d="M317.461,61.66L317.216,61.663L317.121,61.664L316.97,61.667L316.871,61.669L316.724,61.673L316.625,61.676L316.476,61.681L316.38,61.684L316.222,61.69L316.137,61.694L315.937,61.703L315.894,61.705L315.653,61.718L315.581,61.723L315.411,61.733L315.319,61.739C315.319,61.739 315.21,61.747 315.169,61.749C315.136,61.752 315.104,61.754 315.071,61.757C315.031,61.76 314.967,61.764 314.927,61.768C314.894,61.77 314.861,61.773 314.827,61.775C314.787,61.779 314.723,61.784 314.683,61.787C314.651,61.79 314.618,61.793 314.586,61.796C314.545,61.799 314.476,61.806 314.435,61.809C314.405,61.812 314.376,61.815 314.346,61.818C314.302,61.822 314.211,61.831 314.171,61.835C314.15,61.837 314.128,61.839 314.106,61.841C314.056,61.846 313.919,61.861 313.869,61.866C313.848,61.868 313.827,61.871 313.807,61.873C313.767,61.877 313.675,61.888 313.631,61.893C313.601,61.896 313.571,61.9 313.541,61.903C313.501,61.908 313.434,61.916 313.393,61.921C313.36,61.925 313.327,61.929 313.295,61.933C313.255,61.938 313.195,61.946 313.155,61.951C313.121,61.955 313.088,61.959 313.054,61.964C313.014,61.969 312.955,61.977 312.916,61.982C312.882,61.987 312.849,61.991 312.816,61.996C312.776,62.002 312.714,62.01 312.674,62.016C312.643,62.021 312.611,62.025 312.579,62.03C312.538,62.036 312.463,62.047 312.424,62.053C312.397,62.057 312.37,62.061 312.344,62.065C312.291,62.073 312.159,62.094 312.112,62.101C312.095,62.104 312.078,62.106 312.061,62.109C312.022,62.116 311.923,62.132 311.877,62.139C311.847,62.144 311.817,62.149 311.787,62.154C311.748,62.161 311.684,62.172 311.644,62.179C311.61,62.185 311.577,62.191 311.544,62.196C311.505,62.203 311.449,62.213 311.41,62.22C311.376,62.226 311.341,62.233 311.307,62.239C311.268,62.246 311.215,62.256 311.176,62.263C311.141,62.27 311.107,62.276 311.073,62.283C311.034,62.29 310.979,62.301 310.94,62.308C310.907,62.315 310.874,62.321 310.84,62.328C310.8,62.336 310.739,62.348 310.7,62.356C310.67,62.362 310.639,62.368 310.609,62.374C310.563,62.384 310.467,62.404 310.429,62.412C310.412,62.415 310.392,62.419 310.379,62.422C310.371,62.424 310.362,62.426 310.354,62.427C310.316,62.436 310.201,62.46 310.153,62.471C310.122,62.477 310.092,62.484 310.062,62.491C310.023,62.499 309.963,62.513 309.923,62.522C309.889,62.529 309.856,62.537 309.822,62.545C309.784,62.553 309.733,62.565 309.694,62.574C309.659,62.582 309.624,62.59 309.59,62.599C309.551,62.608 309.503,62.619 309.465,62.628C309.43,62.637 309.395,62.645 309.36,62.654C309.321,62.663 309.273,62.675 309.235,62.684C309.2,62.693 309.166,62.701 309.131,62.71C309.093,62.719 309.04,62.733 309.002,62.742C308.969,62.751 308.937,62.759 308.904,62.767C308.863,62.778 308.795,62.796 308.757,62.806C308.73,62.813 308.704,62.819 308.677,62.826C308.628,62.84 308.51,62.871 308.458,62.885C308.429,62.893 308.399,62.901 308.369,62.909C308.332,62.92 308.273,62.936 308.233,62.947C308.2,62.956 308.166,62.966 308.133,62.975C308.095,62.986 308.046,62.999 308.008,63.01C307.974,63.02 307.939,63.03 307.905,63.04C307.867,63.051 307.821,63.064 307.784,63.075C307.749,63.085 307.714,63.096 307.679,63.106C307.642,63.117 307.596,63.131 307.558,63.142C307.524,63.152 307.49,63.163 307.456,63.173C307.418,63.184 307.368,63.2 307.331,63.211C307.299,63.221 307.266,63.231 307.233,63.241C307.194,63.254 307.133,63.273 307.096,63.284C307.068,63.293 307.039,63.302 307.011,63.311C306.961,63.327 306.844,63.365 306.796,63.38C306.771,63.388 306.746,63.397 306.721,63.405C306.684,63.417 306.615,63.44 306.575,63.453C306.544,63.463 306.513,63.474 306.482,63.484C306.445,63.496 306.392,63.514 306.354,63.527C306.322,63.538 306.29,63.549 306.257,63.56C306.22,63.573 306.17,63.59 306.134,63.603C306.101,63.614 306.036,63.637 306.036,63.637L305.912,63.681L305.817,63.715L305.689,63.761L305.599,63.793L305.456,63.846L305.382,63.873L305.166,63.955L305.145,63.963L304.949,64.038L304.88,64.065L304.733,64.123L304.654,64.154L304.516,64.21L304.435,64.242L304.297,64.299L304.22,64.331L304.075,64.391L304.006,64.42L303.84,64.491L303.794,64.51L303.579,64.604L303.358,64.701L303.342,64.708L303.145,64.797L303.104,64.816L302.93,64.895L302.884,64.917L302.713,64.997L302.67,65.017L302.491,65.102L302.459,65.117L302.251,65.218C290.502,70.954 282.401,83.02 282.401,96.964C282.401,110.919 290.516,122.994 302.282,128.725L302.492,128.826L302.51,128.835L302.706,128.928L302.73,128.939L302.927,129.031L302.946,129.04L303.162,129.138C303.236,129.172 303.31,129.205 303.384,129.238L303.599,129.333L303.639,129.35L303.81,129.424L303.876,129.452L304.021,129.514L304.099,129.547L304.235,129.603L304.318,129.637L304.45,129.691L304.534,129.726L304.669,129.779L304.75,129.812L304.907,129.873L304.969,129.897L305.176,129.977L305.269,130.012L305.391,130.058L305.495,130.096L305.606,130.137L305.715,130.177L305.823,130.215L305.934,130.255L306.04,130.292L306.153,130.332L306.257,130.368L306.372,130.407L306.474,130.441L306.592,130.481L306.799,130.549L306.919,130.587L307.017,130.619L307.138,130.657L307.238,130.688L307.358,130.725L307.459,130.756L307.58,130.792L307.681,130.822L307.802,130.858L308.025,130.922L308.125,130.951L308.248,130.985L308.345,131.012L308.465,131.045L308.582,131.076L308.682,131.103L308.803,131.134L308.908,131.162L309.028,131.192L309.135,131.219L309.254,131.248L309.362,131.275L309.48,131.303L309.59,131.329L309.708,131.357L309.82,131.383L309.936,131.409L310.057,131.436L310.164,131.46L310.382,131.507L310.488,131.528L310.613,131.554L310.723,131.577L310.844,131.601L310.956,131.623L311.076,131.646L311.188,131.667L311.31,131.689L311.42,131.709L311.547,131.732L311.653,131.751L311.79,131.774L311.886,131.79L312.113,131.827L312.182,131.838L312.348,131.864L312.444,131.878L312.583,131.899L312.686,131.913L312.82,131.932L312.924,131.947L313.058,131.964L313.162,131.978L313.299,131.995L313.399,132.008L313.546,132.025L313.636,132.036L313.825,132.057L313.874,132.062L314.11,132.087L314.188,132.095L314.349,132.111L314.443,132.119L314.589,132.132L314.688,132.141L314.83,132.153L314.931,132.161L315.074,132.171L315.172,132.179L315.323,132.189L315.414,132.195L315.588,132.206L315.655,132.21L315.896,132.223L315.95,132.225L316.138,132.234L316.226,132.238L316.382,132.244L316.478,132.247L316.626,132.252L316.726,132.255L316.872,132.259L316.971,132.261L317.122,132.263L317.216,132.265L317.381,132.267L317.461,132.268L317.933,132.268L317.992,132.267L318.2,132.265L318.222,132.265L318.447,132.261L318.505,132.259L318.701,132.255L318.736,132.254L318.96,132.246L319.015,132.244L319.205,132.237L319.248,132.235L319.471,132.225L319.522,132.222L319.71,132.212L319.758,132.21L319.981,132.196L320.025,132.193L320.214,132.18L320.265,132.177L320.489,132.16L320.523,132.157L320.719,132.141L320.77,132.137L320.995,132.117L321.015,132.115L321.222,132.095L321.272,132.09L321.499,132.067L321.724,132.042L321.772,132.036L321.996,132.01L322.225,131.981L322.267,131.976L322.493,131.946L322.724,131.914L322.76,131.909L322.976,131.877L322.988,131.875L323.221,131.839L323.248,131.835L323.466,131.8L323.48,131.797L323.716,131.758L323.73,131.755L323.955,131.716L323.97,131.713L324.208,131.67L324.444,131.625L324.456,131.623L324.694,131.576L324.931,131.527L324.939,131.525L325.177,131.475L325.418,131.422C328.06,130.832 330.592,129.946 332.976,128.799C334.553,128.041 336.066,127.168 337.503,126.192C337.669,126.079 337.865,126.019 338.065,126.019L349.302,126.019C349.701,126.018 350.062,126.255 350.22,126.621C350.379,126.987 350.305,127.412 350.032,127.703C348.62,129.193 347.107,130.587 345.502,131.873C345.502,131.873 346.593,135.152 347.369,137.487C347.829,138.867 347.299,140.384 346.081,141.178C344.613,142.12 343.102,142.992 341.551,143.788C340.255,144.445 338.68,144.146 337.715,143.06C336.079,141.223 333.783,138.639 333.783,138.639C332.995,138.946 332.199,139.231 331.395,139.492C331.216,139.589 331.026,139.669 330.827,139.731C328.747,140.364 326.623,140.85 324.471,141.179C324.471,141.179 323.776,144.565 323.277,146.974C322.985,148.397 321.77,149.444 320.32,149.523C319.42,149.567 318.52,149.589 317.62,149.588C316.72,149.589 315.82,149.567 314.921,149.523C313.471,149.444 312.256,148.397 311.964,146.974C311.465,144.565 310.769,141.179 310.769,141.179C308.617,140.85 306.494,140.364 304.414,139.731C304.214,139.669 304.025,139.589 303.846,139.492C303.042,139.231 302.246,138.946 301.457,138.639C301.457,138.639 299.162,141.223 297.525,143.06C296.561,144.146 294.985,144.445 293.69,143.788C292.138,142.992 290.627,142.12 289.16,141.178C287.941,140.384 287.412,138.867 287.872,137.487C288.648,135.152 289.738,131.873 289.738,131.873C287.177,129.82 284.849,127.493 282.797,124.931C282.797,124.931 279.517,126.022 277.181,126.794C275.803,127.252 274.289,126.724 273.496,125.507C272.55,124.042 271.677,122.531 270.877,120.982C270.219,119.684 270.519,118.107 271.607,117.141C273.447,115.507 276.031,113.212 276.031,113.212C274.839,110.154 273.987,106.974 273.49,103.73C273.49,103.73 270.104,103.034 267.695,102.535C266.272,102.243 265.226,101.028 265.147,99.578C265.06,97.836 265.06,96.091 265.142,94.35C265.221,92.897 266.269,91.681 267.694,91.389C270.104,90.893 273.49,90.198 273.49,90.198C273.987,86.954 274.839,83.774 276.031,80.716C276.031,80.716 273.447,78.421 271.61,76.784C270.524,75.819 270.224,74.244 270.881,72.948C271.677,71.397 272.55,69.886 273.491,68.418C274.286,67.2 275.802,66.671 277.182,67.13C279.517,67.906 282.797,68.997 282.797,68.997C284.849,66.435 287.177,64.107 289.738,62.055C289.738,62.055 288.648,58.775 287.875,56.439C287.417,55.061 287.946,53.547 289.162,52.754C290.627,51.808 292.138,50.936 293.688,50.135C294.985,49.478 296.563,49.777 297.528,50.865C298.315,51.751 299.255,52.81 300.022,53.666C300.877,54.629 302.227,54.985 303.446,54.568C303.588,54.52 303.73,54.473 303.873,54.427C304.044,54.336 304.225,54.261 304.415,54.201C306.026,53.707 307.663,53.304 309.32,52.995C310.035,52.739 310.63,52.239 311.007,51.593L311.96,46.953C312.252,45.528 313.468,44.479 314.921,44.4C315.82,44.358 316.72,44.338 317.62,44.34C318.52,44.338 319.421,44.358 320.32,44.4C321.772,44.479 322.989,45.528 323.281,46.953L324.234,51.593C324.61,52.239 325.206,52.739 325.921,52.995C327.578,53.304 329.215,53.707 330.826,54.201C331.016,54.261 331.197,54.336 331.368,54.427C331.51,54.473 331.653,54.52 331.795,54.568C333.013,54.985 334.363,54.629 335.219,53.666C335.985,52.81 336.926,51.751 337.712,50.865C338.678,49.777 340.256,49.478 341.553,50.135C343.102,50.936 344.613,51.808 346.078,52.754C347.295,53.547 347.824,55.061 347.365,56.439C346.593,58.775 345.502,62.055 345.502,62.055C347.107,63.341 348.62,64.735 350.031,66.226C350.303,66.517 350.377,66.941 350.218,67.306C350.06,67.672 349.7,67.908 349.302,67.908C345.865,67.909 339.533,67.909 338.065,67.909C337.865,67.909 337.669,67.848 337.504,67.735C336.076,66.766 334.573,65.899 333.006,65.143C332.862,65.074 332.718,65.005 332.573,64.938L332.57,64.936L332.352,64.836L332.144,64.742L332.124,64.733L331.912,64.639L331.708,64.549L331.676,64.536L331.468,64.447L331.267,64.362L331.226,64.345L331.021,64.261L330.82,64.18L330.772,64.16L330.579,64.084L330.57,64.08L330.37,64.002L330.316,63.982L330.142,63.916L330.112,63.904L329.915,63.831L329.858,63.81L329.695,63.751L329.651,63.735L329.456,63.665L329.397,63.645L329.241,63.59L329.188,63.572L328.994,63.506L328.935,63.486L328.782,63.435L328.723,63.415L328.528,63.352L328.47,63.333L328.318,63.285L328.254,63.265L328.005,63.188L327.85,63.141L327.784,63.121L327.588,63.063L327.539,63.049L327.379,63.003L327.311,62.984L327.113,62.929L327.073,62.918L326.904,62.872L326.835,62.853L326.654,62.805L326.63,62.799L326.611,62.794L326.426,62.747L326.358,62.729L326.187,62.687L326.147,62.677L325.945,62.628L325.878,62.612L325.712,62.573L325.664,62.562L325.461,62.516L325.396,62.501L325.233,62.465L325.179,62.454L324.975,62.41L324.913,62.397L324.749,62.364L324.692,62.352L324.486,62.311L324.429,62.3L324.262,62.268L324.203,62.257L323.995,62.219L323.943,62.21L323.772,62.18L323.712,62.169L323.501,62.134L323.457,62.127L323.279,62.098L323.218,62.088L323.005,62.055L322.972,62.05L322.784,62.023L322.722,62.014L322.506,61.984L322.49,61.982L322.286,61.954L322.225,61.947L322.021,61.921L322.004,61.919L321.726,61.886L321.532,61.865L321.502,61.862L321.283,61.839L321.225,61.833L321.036,61.815L320.997,61.811L320.778,61.792L320.722,61.787L320.537,61.772L320.491,61.768L320.271,61.751L320.219,61.748L320.034,61.735L319.983,61.732L319.762,61.718L319.714,61.716L319.527,61.706L319.473,61.703L319.25,61.693L319.209,61.691L319.018,61.684L318.962,61.681L318.705,61.673L318.507,61.668L318.449,61.667L318.222,61.663L318.203,61.663L317.993,61.661L317.934,61.66L317.706,61.659L317.461,61.66L317.461,61.66Z" style="fill:rgb(84,84,84);"/>
                        </g>
                    </g>
                </g>
                <g id="g48" transform="matrix(1.33333,0,0,1.33333,523.965,240.479)">
                    <g id="g50">
                        <g transform="matrix(3.125,0,0,3.125,504.763,783.766)">
                            <g id="g56">
                                <g id="text60">
                                    <text x="0px" y="0px" style="font-family:'ArialMT', 'Arial', sans-serif;font-size:33.14px;fill:rgb(84,84,84);">ST<tspan x="39.888px 61.992px " y="0px 0px ">AN</tspan>DARDLAB</text>
                                </g>
                            </g>
                        </g>
                        <g transform="matrix(3.125,0,0,3.125,559.446,866.245)">
                            <g id="g62">
                                <g id="text66">
                                    <text x="0px" y="0px" style="font-family:'ArialMT', 'Arial', sans-serif;font-size:12.54px;fill:rgb(84,84,84);">LABORA<tspan x="49.946px 57.379px 67.133px 75.963px 84.1px 87.584px " y="0px 0px 0px 0px 0px 0px ">TORY E</tspan>QUIPMENT</text>
                                </g>
                            </g>
                        </g>
                    </g>
                </g>
            </g>
        </g>
    </g>
</svg>
